<svg width="64" height="64" viewBox="0 0 64 64" fill="none" xmlns="http://www.w3.org/2000/svg">
<circle cx="32" cy="32" r="31" fill="#7e90bd" stroke="#0F1035" stroke-width="2"/>
<path d="M47.817 32.4495L35.189 19.7395L32.237 22.8965L39.781 30.3175H16.821V34.7045H39.658L32.237 42.0845L35.189 45.1595L47.817 32.4495Z" fill="white"/>
<path fill-rule="evenodd" clip-rule="evenodd" d="M35.1587 17.7397C35.7019 17.7315 36.225 17.9445 36.6078 18.3299L49.2358 31.0399C50.0108 31.8199 50.0108 33.0791 49.2358 33.8591L36.6078 46.5691C36.2282 46.9512 35.7105 47.1641 35.1719 47.1594C34.6333 47.1548 34.1193 46.9331 33.7463 46.5446L30.7943 43.4696C30.0388 42.6827 30.0533 41.4356 30.8268 40.6664L34.8106 36.7045H16.821C15.7165 36.7045 14.821 35.8091 14.821 34.7045V30.3175C14.821 29.2129 15.7165 28.3175 16.821 28.3175H34.8959L30.8345 24.3223C30.0611 23.5615 30.0353 22.3229 30.7762 21.5305L33.7282 18.3735C34.0992 17.9768 34.6156 17.748 35.1587 17.7397ZM39.781 30.3175H16.821V34.7045H39.658L32.237 42.0845L35.189 45.1595L47.8169 32.4497L35.189 19.7395L32.237 22.8965L39.781 30.3175Z" fill="#0F1035"/>
</svg>
